<svg width="1800" height="97" viewBox="0 0 1800 97" fill="none" xmlns="http://www.w3.org/2000/svg">
<g clip-path="url(#clip0_209_93)">
<path d="M6.71582 96.3324L3.96842 95.3568C2.98823 94.9524 2.12912 94.2976 1.47543 93.4568L0.10171 90.9407V41.6961C1.01751 38.4611 2.74735 36.5611 5.18947 36.5611H90.8166C93.7444 36.1969 96.5211 35.044 98.8552 33.2234C100.266 31.8401 101.21 30.0435 101.552 28.0884C101.832 26.3884 101.832 24.6534 101.552 22.9534C101.014 20.6394 99.7922 18.5452 98.0473 16.9493C96.3024 15.3533 94.1176 14.3311 91.7832 14.0185H6.00353L1.93331 11.8618C1.20721 10.9639 0.654917 9.93613 0.305225 8.83216C0.0187825 7.70356 0.0187825 6.52032 0.305225 5.39172C0.630124 4.15942 1.27172 3.03558 2.16512 2.13389C3.05852 1.2322 4.17202 0.584644 5.39299 0.256729H94.378C97.3564 0.964274 100.255 1.97951 103.027 3.28638C105.836 4.63788 108.385 6.48069 110.557 8.72945C112.871 11.4587 114.603 14.6401 115.645 18.0751C116.705 21.5129 116.949 25.1541 116.357 28.7046C115.506 32.9264 113.617 36.8644 110.862 40.1556C114.043 41.6283 116.992 43.5662 119.613 45.9068C122.164 48.1932 124.24 50.9685 125.719 54.0714C126.468 56.1735 127.03 58.3388 127.398 60.5415C127.794 62.7782 127.982 65.0476 127.957 67.3197C127.815 71.286 126.825 75.1744 125.057 78.7194C123.171 82.4588 120.497 85.7363 117.222 88.3218C113.77 90.9024 109.895 92.8492 105.775 94.073C101.652 95.2905 97.4288 96.1326 93.1569 96.5892L6.71582 96.3324ZM105.673 78.514C107.204 77.7037 108.569 76.6057 109.692 75.279C110.842 74.0274 111.741 72.5625 112.338 70.9656L113.05 62.4415C112.81 60.969 112.254 59.5672 111.422 58.3335C110.516 57.043 109.437 55.8852 108.217 54.893C106.237 53.4611 104.036 52.3681 101.704 51.658C99.3056 50.9229 96.8295 50.4748 94.3271 50.3229H14.6527V82.0058H94.785C96.6929 81.8557 98.5739 81.4588 100.382 80.8247C102.111 80.1572 103.892 79.3869 105.673 78.514Z" fill="white"/>
<path d="M248.741 97C247.759 96.7842 246.79 96.5098 245.841 96.1784C244.878 95.8298 243.996 95.2884 243.246 94.5865L225.998 69.2197H158.179L140.473 94.8947C135.945 97.4108 132.384 97.1027 129.738 93.9704C129.027 93.1506 128.537 92.1605 128.313 91.0948C128.11 90.0262 128.11 88.9283 128.313 87.8597L147.545 58.7443C148.021 57.3906 148.993 56.2732 150.262 55.6232C151.531 54.9733 152.999 54.8406 154.363 55.2525H216.23L185.703 11.9645C184.792 10.4016 184.49 8.55177 184.857 6.77623C185.223 5.0007 186.233 3.4269 187.688 2.3621C189.1 1.18628 190.913 0.614112 192.737 0.767597C194.562 0.921083 196.256 1.78808 197.456 3.18369L255.1 85.3436C255.789 86.5266 256.152 87.8739 256.152 89.2462C256.152 90.6184 255.789 91.9657 255.1 93.1488C254.052 94.4433 252.754 95.509 251.285 96.2811C250.725 96.5892 249.809 96.7946 248.741 97Z" fill="white"/>
<path d="M269.702 96.3324C267.733 95.9813 265.94 94.9678 264.615 93.4568L263.19 90.9407V6.31605C263.883 4.81197 264.98 3.5338 266.355 2.62627C267.731 1.71874 269.331 1.21811 270.974 1.18106C272.085 1.26234 273.167 1.57867 274.148 2.10949C275.13 2.64031 275.99 3.37372 276.673 4.26204L277.792 6.41875V90.9407C276.933 92.893 275.493 94.5264 273.671 95.6135L269.702 96.3324ZM382.803 96.3324L292.903 50.5797C292.172 49.9472 291.599 49.1507 291.229 48.2542C290.859 47.3578 290.702 46.3862 290.772 45.4176C290.841 44.4489 291.134 43.5102 291.628 42.6766C292.122 41.8431 292.802 41.1379 293.615 40.6178L384.33 1.07835C386.183 1.1715 387.925 2.00165 389.174 3.3873C390.423 4.77295 391.078 6.60136 390.995 8.47273C391.125 9.48703 390.953 10.5177 390.5 11.4326C390.047 12.3474 389.333 13.1049 388.451 13.6077L315.441 46.523L390.282 86.0111C391.106 87.4271 391.375 89.1031 391.036 90.7092C390.697 92.3153 389.775 93.7351 388.451 94.6892C386.762 95.7694 384.802 96.3395 382.803 96.3324Z" fill="white"/>
<path d="M405.139 15.2509L400.763 13.1969C399.987 12.2486 399.418 11.1454 399.093 9.95955C398.769 8.77372 398.696 7.53208 398.881 6.31602C399.485 4.97084 400.409 3.79771 401.573 2.9016C402.736 2.00549 404.101 1.41434 405.546 1.18103H520.173C521.093 1.22048 521.996 1.44357 522.83 1.83742C523.665 2.23127 524.413 2.78806 525.033 3.47562C525.653 4.16318 526.131 4.96788 526.441 5.84322C526.751 6.71855 526.886 7.64717 526.838 8.57541C526.689 9.51543 526.415 10.4309 526.024 11.297C525.59 12.1663 525.004 12.9492 524.294 13.6077L520.478 15.3536L405.139 15.2509ZM405.139 96.3324C404.223 96.0243 403.256 95.7162 402.391 95.3568C401.411 94.9524 400.552 94.2976 399.898 93.4568L398.474 90.9407V44.2636C398.929 42.794 399.804 41.4931 400.99 40.5245C402.176 39.556 403.62 38.9631 405.139 38.8205H509.285L513.406 41.0286C514.138 41.9309 514.706 42.9565 515.085 44.0582C515.451 45.263 515.451 46.5506 515.085 47.7554L513.254 50.9905C512.512 51.4409 511.748 51.8523 510.964 52.2229C510.149 52.6168 509.297 52.9265 508.42 53.1471H413.228V82.0058H520.071C520.981 82.077 521.868 82.3292 522.68 82.7477C523.493 83.1663 524.216 83.7429 524.807 84.4445C525.398 85.1461 525.846 85.9587 526.125 86.8357C526.403 87.7126 526.507 88.6366 526.431 89.5542C526.185 91.3245 525.351 92.9583 524.067 94.1893C522.783 95.4202 521.123 96.1757 519.359 96.3324H405.139Z" fill="white"/>
<path d="M570.745 96.3325C568.776 95.9814 566.983 94.9678 565.658 93.4569L527.245 9.96192C526.986 8.55103 527.125 7.09509 527.647 5.76034C528.169 4.42559 529.052 3.26582 530.196 2.41348C531.97 1.4362 533.977 0.974085 535.996 1.07839C536.941 1.24976 537.842 1.61074 538.646 2.13997C539.45 2.66919 540.14 3.35589 540.677 4.15938L571.203 70.6575L600.61 4.31344C601.245 3.06382 602.277 2.06557 603.541 1.47892C604.805 0.89226 606.228 0.751203 607.581 1.07839C609.577 1.3118 611.404 2.32572 612.668 3.90263L643.195 69.8873L669.702 4.57019C670.369 3.4672 671.313 2.56267 672.44 1.94914C673.566 1.33561 674.834 1.03511 676.113 1.07839C677.213 1.06843 678.301 1.30342 679.301 1.76661C680.3 2.22981 681.186 2.90981 681.896 3.75815C682.605 4.60649 683.12 5.6023 683.405 6.67461C683.689 7.74693 683.736 8.86936 683.541 9.96192L649.606 93.765C648.822 94.5725 647.877 95.2011 646.832 95.6086C645.788 96.0161 644.669 96.1928 643.551 96.1271C642.474 96.0852 641.415 95.8276 640.437 95.3692C639.458 94.9108 638.58 94.2607 637.853 93.4569L607.326 26.702L577.868 93.4569C576.993 94.473 575.89 95.2638 574.651 95.7639C573.413 96.264 572.074 96.4589 570.745 96.3325Z" fill="white"/>
<path d="M696.006 15.2509L691.631 13.1969C690.894 12.2872 690.34 11.2405 690.003 10.1159C689.714 8.86603 689.714 7.5659 690.003 6.31602C690.595 4.9627 691.516 3.78238 692.682 2.88466C693.847 1.98694 695.218 1.40093 696.667 1.18103H811.295C813.149 1.27418 814.89 2.10433 816.139 3.48998C817.388 4.87563 818.043 6.70404 817.96 8.57541C817.771 9.51183 817.481 10.4245 817.095 11.297C816.663 12.1538 816.096 12.9342 815.416 13.6077L811.549 15.3536L696.006 15.2509ZM696.464 96.3324L693.666 95.3568C692.702 94.9489 691.86 94.2939 691.224 93.4568L689.799 90.9407V44.2636C690.205 42.8498 691.007 41.5843 692.108 40.6189C693.209 39.6534 694.562 39.029 696.006 38.8205H800.204L804.274 41.0286C805.003 41.9417 805.586 42.9638 806.004 44.0582C806.34 45.2672 806.34 46.5465 806.004 47.7554L804.172 50.9905C803.448 51.4406 802.7 51.8519 801.933 52.2229C801.112 52.6005 800.261 52.9097 799.389 53.1471H704.248V82.0058H811.091C812.928 82.1631 814.629 83.0428 815.828 84.455C817.028 85.8672 817.629 87.6987 817.502 89.5542C817.247 91.3209 816.411 92.9497 815.129 94.179C813.846 95.4083 812.191 96.1668 810.43 96.3324H696.464Z" fill="white"/>
<path d="M830.069 96.3325C828.095 95.9932 826.298 94.9775 824.981 93.4568L823.556 90.9407V6.31605C824.167 4.75154 825.244 3.41707 826.638 2.49717C828.033 1.57726 829.676 1.11736 831.34 1.18106C832.443 1.26621 833.516 1.58451 834.489 2.11531C835.462 2.64611 836.313 3.37752 836.988 4.26205L838.107 6.41875V82.0058H944.95C946.688 82.3782 948.254 83.3208 949.405 84.6864C950.555 86.052 951.225 87.7637 951.31 89.5543C951.011 91.2669 950.187 92.8419 948.955 94.0577C947.723 95.2735 946.145 96.069 944.442 96.3325H830.069Z" fill="white"/>
<path d="M963.673 96.3324C961.7 95.9931 959.903 94.9775 958.586 93.4568L957.161 90.9407V6.31604C957.778 4.75593 958.856 3.42572 960.249 2.50678C961.642 1.58783 963.282 1.12489 964.945 1.18105C966.05 1.25649 967.126 1.57061 968.101 2.10216C969.075 2.63371 969.925 3.37028 970.593 4.26204L971.763 6.41874V82.0058H1078.61C1080.35 82.37 1081.92 83.3102 1083.07 84.6775C1084.22 86.0448 1084.89 87.7611 1084.97 89.5542C1084.65 91.2965 1083.8 92.8933 1082.53 94.1123C1081.26 95.3314 1079.63 96.1091 1077.89 96.3324H963.673Z" fill="white"/>
<path d="M1090.46 55.5606C1087.76 53.9688 1086.49 53.4039 1086.8 53.866C1087.1 54.3282 1086.8 53.866 1086.08 52.4796C1085.48 51.499 1085.1 50.3937 1084.97 49.2446V47.0879C1085.31 45.7958 1086.01 44.628 1086.98 43.7193C1087.95 42.8106 1089.16 42.1982 1090.46 41.9529H1207.48C1209.12 42.3847 1210.56 43.3685 1211.57 44.7413C1212.58 46.1141 1213.09 47.7936 1213.02 49.5013C1212.8 50.0644 1212.63 50.6494 1212.52 51.2472C1212.4 51.9483 1212.04 52.5845 1211.5 53.0444L1210.02 54.4822L1207.07 55.8173L1090.46 55.5606Z" fill="white"/>
<path d="M1257.08 96.3325C1255.11 95.9932 1253.31 94.9776 1252 93.4569L1213.89 9.96191C1213.64 8.54613 1213.78 7.08691 1214.31 5.75175C1214.85 4.41658 1215.74 3.25956 1216.89 2.41346C1218.66 1.42848 1220.67 0.965856 1222.69 1.07837C1224.59 1.45131 1226.27 2.5566 1227.37 4.15936L1257.64 70.6575L1287.1 4.31343C1287.73 3.06791 1288.75 2.07132 1290.01 1.4844C1291.26 0.897487 1292.68 0.754454 1294.02 1.07837C1296.01 1.32739 1297.83 2.33829 1299.11 3.90262L1329.64 69.8873L1356.25 4.57017C1356.92 3.45939 1357.87 2.54985 1359 1.93588C1360.14 1.3219 1361.42 1.02584 1362.71 1.07837C1363.82 1.13113 1364.91 1.4082 1365.92 1.89325C1366.92 2.37831 1367.82 3.06153 1368.56 3.90262C1369.8 5.65795 1370.37 7.81512 1370.13 9.96191L1336.15 93.765C1335.37 94.5712 1334.44 95.1995 1333.4 95.6072C1332.37 96.0148 1331.26 96.1921 1330.14 96.1271C1329.06 96.0862 1327.99 95.8293 1327.01 95.3711C1326.02 94.9128 1325.13 94.2623 1324.4 93.4569L1293.87 26.702L1264.41 93.4569C1263.51 94.4929 1262.37 95.2948 1261.09 95.7952C1259.82 96.2955 1258.44 96.4798 1257.08 96.3325Z" fill="white"/>
<path d="M1382.45 96.3325L1379.7 95.3568C1378.73 94.9389 1377.87 94.2865 1377.21 93.4569L1375.83 90.9407V6.31608C1376.42 4.73337 1377.49 3.38098 1378.89 2.45696C1380.29 1.53293 1381.95 1.08582 1383.62 1.18108C1384.68 1.35784 1385.71 1.70451 1386.67 2.20809C1387.66 2.70814 1388.55 3.40695 1389.26 4.26207L1390.38 6.41878V43.288H1488.83V6.93227C1489.06 5.20776 1489.89 3.62196 1491.17 2.46483C1492.08 1.88187 1493.08 1.44856 1494.12 1.18108C1495.13 0.97197 1496.15 0.868709 1497.18 0.872978C1498.05 0.858904 1498.92 1.02367 1499.74 1.3574C1500.55 1.69113 1501.28 2.18694 1501.9 2.81511C1502.52 3.44328 1503.01 4.19087 1503.33 5.01305C1503.65 5.83524 1503.81 6.71509 1503.79 7.59982V89.5543C1503.69 90.5427 1503.41 91.5025 1502.94 92.3784C1502.48 93.2544 1501.85 94.0295 1501.09 94.6591C1500.33 95.2888 1499.45 95.7608 1498.51 96.0479C1497.57 96.335 1496.58 96.4317 1495.6 96.3325C1494.62 96.0439 1493.67 95.6834 1492.75 95.2541C1491.87 94.7697 1491.07 94.1648 1490.36 93.4569L1488.83 90.2218V57.0498H1390.38V90.9407C1389.84 91.8659 1389.25 92.7576 1388.6 93.6109C1387.98 94.4481 1387.18 95.1327 1386.26 95.6136L1382.45 96.3325Z" fill="white"/>
<path d="M1523.17 96.3324C1522.23 96.0243 1521.26 95.6649 1520.27 95.2541C1519.23 94.7649 1518.32 94.0242 1517.63 93.0974L1516.51 90.9407V6.31605L1518.34 3.23504C1519.15 2.47097 1520.13 1.9083 1521.19 1.59185C1522.19 1.25939 1523.24 1.08616 1524.29 1.07835C1525.27 1.23595 1526.23 1.51179 1527.14 1.89995C1528.09 2.36125 1528.91 3.04867 1529.53 3.90259L1531.06 6.72684V90.6326C1530.57 92.3384 1529.53 93.8282 1528.1 94.8622C1526.67 95.8962 1524.93 96.414 1523.17 96.3324Z" fill="white"/>
<path d="M1601.42 96.3324C1599.44 96.0271 1597.63 95.0054 1596.34 93.4568L1594.76 90.6326V15.2509H1544.54C1543.19 14.9304 1541.93 14.3009 1540.85 13.4107C1539.77 12.5206 1538.91 11.3935 1538.34 10.1159V6.47008C1538.86 5.07876 1539.75 3.86144 1540.92 2.9545C1542.09 2.04755 1543.48 1.48681 1544.95 1.33508H1659.63C1661.45 1.4911 1663.15 2.3417 1664.38 3.71461C1665.61 5.08752 1666.27 6.88013 1666.24 8.72946C1666.09 10.7095 1665.17 12.5509 1663.7 13.8645L1659.88 15.6104H1609.36V90.9407L1607.53 94.1758C1605.82 95.608 1603.65 96.3731 1601.42 96.3324Z" fill="white"/>
<path d="M1678.3 15.2509L1673.87 13.1969C1673.18 12.2622 1672.63 11.2225 1672.25 10.1159C1671.98 8.86326 1671.98 7.56867 1672.25 6.31602C1672.85 4.96816 1673.77 3.79267 1674.93 2.89604C1676.1 1.9994 1677.47 1.40994 1678.91 1.18103H1793.54C1795.39 1.27418 1797.13 2.10433 1798.38 3.48998C1799.63 4.87563 1800.29 6.70404 1800.2 8.57541C1800.04 9.51791 1799.75 10.4334 1799.34 11.297C1798.94 12.1753 1798.37 12.9619 1797.66 13.6077L1793.84 15.3536L1678.3 15.2509ZM1678.71 96.3324C1677.74 96.0243 1676.83 95.7162 1675.96 95.3568C1674.98 94.9524 1674.12 94.2976 1673.47 93.4568L1672.04 90.9407V44.2636C1672.47 42.852 1673.28 41.5914 1674.39 40.628C1675.5 39.6646 1676.85 39.0379 1678.3 38.8205H1782.45L1786.57 41.0286C1787.3 41.9309 1787.87 42.9565 1788.25 44.0582C1788.59 45.2668 1788.59 46.5468 1788.25 47.7554L1786.42 50.9905C1785.67 51.4409 1784.91 51.8523 1784.13 52.2229C1783.31 52.6086 1782.46 52.918 1781.58 53.1471H1686.64V82.0058H1793.49C1795.32 82.1629 1797.02 83.0444 1798.21 84.4583C1799.4 85.8721 1799.99 87.7038 1799.85 89.5542C1799.6 91.3245 1798.77 92.9583 1797.48 94.1893C1796.2 95.4202 1794.54 96.1757 1792.78 96.3324H1678.71Z" fill="white"/>
</g>
<defs>
<clipPath id="clip0_209_93">
<rect width="1800" height="97" fill="white"/>
</clipPath>
</defs>
</svg>
