<svg width="329" height="18" viewBox="0 0 329 18" fill="none" xmlns="http://www.w3.org/2000/svg">
<g clip-path="url(#clip0_395_919)">
<path d="M1.22751 17.8761L0.725343 17.6951C0.546186 17.6201 0.389159 17.4986 0.269679 17.3425L0.0185937 16.8756V7.73745C0.185981 7.13713 0.502157 6.78457 0.948524 6.78457H16.5992C17.1344 6.71698 17.6419 6.50304 18.0685 6.16519C18.3264 5.90851 18.4989 5.5751 18.5614 5.2123C18.6126 4.89684 18.6126 4.57488 18.5614 4.25942C18.4632 3.83002 18.2398 3.44141 17.9209 3.14525C17.6019 2.84909 17.2026 2.6594 16.7759 2.6014H1.09732L0.353369 2.20119C0.220655 2.03456 0.119708 1.84385 0.0557917 1.63898C0.00343645 1.42955 0.00343645 1.20998 0.0557917 1.00055C0.115176 0.771879 0.232446 0.563331 0.395739 0.396007C0.559032 0.228683 0.762556 0.108519 0.985722 0.0476685H17.2502C17.7946 0.178965 18.3243 0.36736 18.8311 0.609871C19.3444 0.860666 19.8104 1.20263 20.2074 1.61993C20.6304 2.12639 20.9469 2.71675 21.1373 3.35418C21.3311 3.99211 21.3757 4.6678 21.2675 5.32665C21.112 6.11009 20.7666 6.84084 20.2632 7.45159C20.8446 7.72487 21.3836 8.08447 21.8627 8.51882C22.3289 8.94309 22.7082 9.4581 22.9786 10.0339C23.1155 10.424 23.2182 10.8258 23.2854 11.2345C23.3579 11.6496 23.3922 12.0707 23.3877 12.4923C23.3617 13.2284 23.1809 13.9499 22.8577 14.6078C22.5129 15.3017 22.0241 15.9099 21.4256 16.3896C20.7947 16.8685 20.0864 17.2298 19.3332 17.4569C18.5797 17.6828 17.8078 17.8391 17.027 17.9238L1.22751 17.8761ZM19.3146 14.5696C19.5946 14.4193 19.8439 14.2155 20.0493 13.9693C20.2595 13.7371 20.4237 13.4652 20.5329 13.1689L20.663 11.5871C20.6191 11.3139 20.5175 11.0537 20.3655 10.8248C20.1998 10.5853 20.0027 10.3705 19.7796 10.1864C19.4177 9.92065 19.0155 9.71783 18.5893 9.58605C18.1509 9.44963 17.6983 9.36648 17.2409 9.3383H2.67819V15.2176H17.3246C17.6733 15.1897 18.0171 15.1161 18.3475 14.9984C18.6637 14.8746 18.9892 14.7316 19.3146 14.5696Z" fill="#F7F7F7"/>
<path d="M45.4643 18C45.2848 17.96 45.1078 17.9091 44.9342 17.8476C44.7583 17.7829 44.597 17.6824 44.46 17.5522L41.3075 12.8449H28.9115L25.6754 17.6094C24.8477 18.0763 24.1968 18.0191 23.7132 17.4378C23.5833 17.2857 23.4937 17.102 23.4528 16.9042C23.4157 16.7059 23.4157 16.5022 23.4528 16.3039L26.968 10.9011C27.0549 10.6498 27.2327 10.4425 27.4646 10.3219C27.6966 10.2013 27.9649 10.1766 28.2141 10.2531H39.522L33.9424 2.22027C33.7758 1.93023 33.7206 1.58697 33.7877 1.25749C33.8547 0.928009 34.0392 0.635965 34.3051 0.438371C34.5634 0.220179 34.8946 0.114003 35.2281 0.142485C35.5617 0.170967 35.8712 0.331853 36.0906 0.590833L46.6267 15.837C46.7526 16.0565 46.819 16.3065 46.819 16.5612C46.819 16.8158 46.7526 17.0658 46.6267 17.2854C46.4351 17.5256 46.1978 17.7234 45.9292 17.8666C45.827 17.9238 45.6596 17.9619 45.4643 18Z" fill="#F7F7F7"/>
<path d="M49.2956 17.8761C48.9357 17.811 48.6079 17.6229 48.3657 17.3425L48.1053 16.8756V1.17208C48.232 0.89297 48.4324 0.655784 48.6838 0.487377C48.9353 0.318969 49.2277 0.226068 49.5281 0.219192C49.7311 0.234277 49.9288 0.292977 50.1082 0.391479C50.2877 0.489981 50.4449 0.626078 50.5696 0.790922L50.7742 1.19114V16.8756C50.6172 17.2379 50.3539 17.541 50.0209 17.7427L49.2956 17.8761ZM69.9679 17.8761L53.5361 9.38594C53.4026 9.26857 53.2979 9.12078 53.2302 8.95442C53.1626 8.78807 53.134 8.60778 53.1466 8.42803C53.1593 8.24829 53.2129 8.07408 53.3031 7.9194C53.3934 7.76472 53.5177 7.63387 53.6663 7.53735L70.2469 0.200134C70.5857 0.217419 70.9041 0.371467 71.1324 0.628599C71.3607 0.88573 71.4803 1.22502 71.4651 1.57229C71.489 1.76051 71.4576 1.95176 71.3747 2.12153C71.2919 2.29131 71.1615 2.43186 71.0002 2.52517L57.6557 8.63316L71.3349 15.9609C71.4855 16.2236 71.5347 16.5346 71.4727 16.8327C71.4108 17.1307 71.2422 17.3942 71.0002 17.5712C70.6915 17.7717 70.3333 17.8775 69.9679 17.8761Z" fill="#F7F7F7"/>
<path d="M74.0503 2.83008L73.2506 2.44893C73.1087 2.27295 73.0047 2.06823 72.9454 1.84818C72.8861 1.62813 72.8728 1.39772 72.9065 1.17206C73.0169 0.92244 73.186 0.704747 73.3986 0.538458C73.6111 0.37217 73.8606 0.262472 74.1247 0.219177H95.0761C95.2442 0.226498 95.4093 0.267896 95.5618 0.340981C95.7143 0.414066 95.8511 0.517389 95.9644 0.644977C96.0776 0.772566 96.1651 0.921892 96.2217 1.08433C96.2784 1.24676 96.303 1.41908 96.2943 1.59133C96.2671 1.76577 96.217 1.93564 96.1455 2.09636C96.0662 2.25768 95.9591 2.40295 95.8293 2.52516L95.1318 2.84914L74.0503 2.83008ZM74.0503 17.8761C73.8829 17.819 73.7063 17.7618 73.5482 17.6951C73.369 17.6201 73.212 17.4985 73.0925 17.3425L72.8321 16.8756V8.21388C72.9153 7.94117 73.0754 7.69976 73.2921 7.52003C73.5089 7.34031 73.7727 7.23029 74.0503 7.20382H93.086L93.8392 7.61356C93.973 7.78101 94.0769 7.97133 94.1461 8.17577C94.2129 8.39934 94.2129 8.63827 94.1461 8.86185L93.8113 9.46216C93.6758 9.54576 93.5361 9.62209 93.3929 9.69086C93.2439 9.76397 93.0882 9.82143 92.9279 9.86237H75.5289V15.2176H95.0574C95.2237 15.2308 95.3858 15.2776 95.5344 15.3553C95.6829 15.4329 95.815 15.5399 95.9231 15.6701C96.0311 15.8003 96.113 15.9511 96.1639 16.1139C96.2148 16.2766 96.2339 16.448 96.2199 16.6183C96.1749 16.9468 96.0226 17.25 95.7878 17.4784C95.5531 17.7069 95.2497 17.847 94.9273 17.8761H74.0503Z" fill="#F7F7F7"/>
<path d="M104.32 17.8762C103.96 17.811 103.632 17.6229 103.39 17.3426L96.3687 1.84864C96.3213 1.58683 96.3468 1.31665 96.4422 1.06897C96.5376 0.821282 96.699 0.606068 96.908 0.447901C97.2323 0.26655 97.5992 0.180796 97.9682 0.200152C98.1408 0.231953 98.3055 0.298939 98.4525 0.397146C98.5994 0.495352 98.7257 0.62278 98.8237 0.771882L104.403 13.1117L109.778 0.800471C109.894 0.568582 110.083 0.383341 110.314 0.274476C110.545 0.165612 110.805 0.139437 111.052 0.200152C111.417 0.243466 111.751 0.431614 111.982 0.724238L117.562 12.9688L122.407 0.848114C122.529 0.643437 122.701 0.475584 122.907 0.361734C123.113 0.247883 123.345 0.192121 123.578 0.200152C123.779 0.198304 123.978 0.24191 124.161 0.327863C124.344 0.413817 124.506 0.540002 124.635 0.697427C124.765 0.854851 124.859 1.03964 124.911 1.23863C124.963 1.43761 124.972 1.6459 124.936 1.84864L118.733 17.3997C118.59 17.5496 118.417 17.6662 118.227 17.7418C118.036 17.8174 117.831 17.8503 117.627 17.8381C117.43 17.8303 117.236 17.7825 117.058 17.6974C116.879 17.6123 116.718 17.4917 116.585 17.3426L111.006 4.95505L105.621 17.3426C105.461 17.5311 105.26 17.6779 105.033 17.7707C104.807 17.8635 104.562 17.8996 104.32 17.8762Z" fill="#F7F7F7"/>
<path d="M127.214 2.83008L126.415 2.44893C126.28 2.28012 126.179 2.08588 126.117 1.8772C126.064 1.64526 126.064 1.404 126.117 1.17206C126.225 0.920931 126.394 0.701901 126.607 0.535314C126.82 0.368727 127.07 0.259984 127.335 0.219177H148.287C148.625 0.236462 148.944 0.39051 149.172 0.647642C149.4 0.904773 149.52 1.24407 149.505 1.59133C149.47 1.7651 149.417 1.93446 149.347 2.09636C149.268 2.25537 149.164 2.40018 149.04 2.52516L148.333 2.84914L127.214 2.83008ZM127.298 17.8761L126.787 17.6951C126.61 17.6194 126.457 17.4979 126.34 17.3425L126.08 16.8756V8.21388C126.154 7.95153 126.301 7.7167 126.502 7.53754C126.703 7.35839 126.951 7.24251 127.214 7.20382H146.259L147.003 7.61356C147.137 7.78302 147.243 7.97269 147.32 8.17577C147.381 8.40011 147.381 8.6375 147.32 8.86185L146.985 9.46216C146.852 9.54569 146.716 9.62202 146.576 9.69086C146.425 9.76094 146.27 9.8183 146.111 9.86237H128.721V15.2176H148.249C148.585 15.2468 148.896 15.41 149.115 15.6721C149.334 15.9341 149.444 16.274 149.421 16.6183C149.375 16.9462 149.222 17.2484 148.987 17.4765C148.753 17.7047 148.451 17.8454 148.129 17.8761H127.298Z" fill="#F7F7F7"/>
<path d="M151.718 17.8762C151.357 17.8132 151.029 17.6248 150.788 17.3426L150.528 16.8757V1.17211C150.639 0.881785 150.836 0.634152 151.091 0.463447C151.346 0.292743 151.646 0.2074 151.951 0.219221C152.152 0.235022 152.348 0.294089 152.526 0.392587C152.704 0.491086 152.859 0.626811 152.983 0.790951L153.187 1.19116V15.2176H172.716C173.033 15.2867 173.32 15.4616 173.53 15.7151C173.74 15.9685 173.863 16.2861 173.878 16.6184C173.824 16.9362 173.673 17.2284 173.448 17.4541C173.223 17.6797 172.934 17.8273 172.623 17.8762H151.718Z" fill="#F7F7F7"/>
<path d="M176.138 17.8761C175.777 17.8132 175.449 17.6247 175.208 17.3425L174.948 16.8756V1.17206C175.06 0.88255 175.258 0.635706 175.512 0.465181C175.767 0.294656 176.067 0.208749 176.371 0.21917C176.573 0.23317 176.769 0.291459 176.947 0.390097C177.125 0.488735 177.281 0.625419 177.403 0.7909L177.617 1.19111V15.2176H197.145C197.463 15.2852 197.751 15.4596 197.961 15.7134C198.172 15.9671 198.294 16.2856 198.308 16.6183C198.251 16.9416 198.095 17.2379 197.862 17.4642C197.63 17.6904 197.333 17.8347 197.015 17.8761H176.138Z" fill="#F7F7F7"/>
<path d="M199.312 10.3102C198.819 10.0148 198.587 9.91003 198.642 9.99579C198.698 10.0815 198.642 9.99579 198.512 9.73851C198.401 9.55654 198.331 9.35143 198.308 9.13819V8.73798C198.37 8.49822 198.498 8.2815 198.675 8.11288C198.853 7.94426 199.074 7.83062 199.312 7.7851H220.7C221 7.86522 221.264 8.04779 221.448 8.30254C221.632 8.55729 221.726 8.86894 221.714 9.18584C221.672 9.29033 221.641 9.39888 221.621 9.50982C221.599 9.63992 221.533 9.75798 221.435 9.84333L221.165 10.1101L220.626 10.3579L199.312 10.3102Z" fill="#F7F7F7"/>
<path d="M229.767 17.8762C229.407 17.8132 229.078 17.6247 228.837 17.3426L221.872 1.84865C221.826 1.58592 221.853 1.31514 221.95 1.06738C222.047 0.819615 222.21 0.60491 222.421 0.447903C222.744 0.265122 223.112 0.179275 223.481 0.200155C223.828 0.269359 224.135 0.474464 224.336 0.771884L229.869 13.1117L235.254 0.800473C235.368 0.569347 235.555 0.384413 235.784 0.2755C236.014 0.166588 236.272 0.140046 236.518 0.200155C236.882 0.246365 237.215 0.433954 237.448 0.724241L243.028 12.9688L247.891 0.848117C248.014 0.641993 248.188 0.473213 248.396 0.359279C248.603 0.245346 248.837 0.190406 249.072 0.200155C249.276 0.209945 249.475 0.261359 249.659 0.35137C249.843 0.44138 250.007 0.568163 250.142 0.724241C250.37 1.04997 250.472 1.45027 250.43 1.84865L244.218 17.3997C244.077 17.5493 243.906 17.6659 243.716 17.7416C243.527 17.8172 243.324 17.8501 243.121 17.8381C242.923 17.8305 242.728 17.7828 242.547 17.6978C242.367 17.6127 242.205 17.492 242.07 17.3426L236.491 4.95505L231.106 17.3426C230.941 17.5348 230.733 17.6836 230.5 17.7765C230.267 17.8693 230.016 17.9035 229.767 17.8762Z" fill="#F7F7F7"/>
<path d="M252.681 17.8762L252.178 17.6951C252.001 17.6175 251.844 17.4965 251.723 17.3425L251.472 16.8756V1.17208C251.578 0.87838 251.774 0.627422 252.03 0.455954C252.286 0.284486 252.589 0.201516 252.894 0.219194C253.089 0.251994 253.278 0.316324 253.452 0.409772C253.634 0.502565 253.795 0.632242 253.927 0.790924L254.131 1.19114V8.03285H272.125V1.28642C272.166 0.966412 272.318 0.672139 272.553 0.457415C272.72 0.349237 272.902 0.268828 273.093 0.219194C273.276 0.180389 273.463 0.161227 273.651 0.162019C273.811 0.159408 273.97 0.189983 274.118 0.251912C274.267 0.313841 274.401 0.405848 274.514 0.522416C274.627 0.638984 274.716 0.777711 274.775 0.930281C274.835 1.08285 274.863 1.24612 274.859 1.4103V16.6183C274.842 16.8018 274.789 16.9799 274.705 17.1424C274.62 17.305 274.505 17.4488 274.366 17.5656C274.227 17.6825 274.066 17.7701 273.894 17.8233C273.722 17.8766 273.541 17.8946 273.362 17.8762C273.184 17.8226 273.01 17.7557 272.841 17.676C272.681 17.5861 272.534 17.4739 272.404 17.3425L272.125 16.7422V10.5866H254.131V16.8756C254.033 17.0473 253.924 17.2128 253.806 17.3711C253.692 17.5265 253.546 17.6535 253.378 17.7428L252.681 17.8762Z" fill="#F7F7F7"/>
<path d="M278.402 17.8761C278.229 17.819 278.052 17.7523 277.872 17.676C277.682 17.5853 277.516 17.4478 277.389 17.2758L277.184 16.8756V1.17208L277.519 0.600344C277.667 0.458557 277.845 0.354146 278.04 0.295421C278.223 0.233728 278.414 0.201582 278.607 0.200134C278.786 0.229378 278.961 0.280566 279.128 0.352596C279.301 0.438197 279.451 0.56576 279.565 0.72422L279.844 1.24831V16.8184C279.754 17.135 279.564 17.4114 279.302 17.6033C279.041 17.7952 278.724 17.8913 278.402 17.8761Z" fill="#F7F7F7"/>
<path d="M292.705 17.8762C292.342 17.8195 292.012 17.6299 291.775 17.3426L291.487 16.8185V2.83012H282.308C282.061 2.77064 281.83 2.65382 281.633 2.48864C281.436 2.32347 281.279 2.11431 281.174 1.87724V1.20069C281.269 0.942506 281.433 0.716612 281.646 0.548313C281.86 0.380014 282.115 0.275959 282.383 0.247803H303.343C303.677 0.276754 303.988 0.434597 304.212 0.689364C304.436 0.944131 304.558 1.27678 304.552 1.61996C304.524 1.98739 304.357 2.3291 304.087 2.57284L303.39 2.89682H294.155V16.8756L293.821 17.476C293.507 17.7417 293.111 17.8837 292.705 17.8762Z" fill="#F7F7F7"/>
<path d="M306.756 2.83008L305.947 2.44893C305.819 2.27547 305.719 2.08255 305.65 1.8772C305.601 1.64475 305.601 1.40451 305.65 1.17206C305.759 0.921943 305.928 0.703812 306.141 0.537426C306.354 0.37104 306.603 0.261655 306.868 0.219177H327.819C328.158 0.236462 328.476 0.39051 328.704 0.647642C328.933 0.904773 329.052 1.24407 329.037 1.59133C329.007 1.76623 328.954 1.93612 328.879 2.09636C328.807 2.25935 328.702 2.40531 328.572 2.52516L327.875 2.84914L306.756 2.83008ZM306.831 17.8761C306.654 17.819 306.486 17.7618 306.328 17.6951C306.149 17.6201 305.992 17.4985 305.873 17.3425L305.612 16.8756V8.21388C305.69 7.95194 305.839 7.71802 306.042 7.53924C306.244 7.36046 306.492 7.24416 306.756 7.20382H325.792L326.545 7.61356C326.679 7.78101 326.783 7.97133 326.852 8.17577C326.914 8.40004 326.914 8.63757 326.852 8.86185L326.517 9.46216C326.382 9.54576 326.242 9.62209 326.099 9.69086C325.949 9.76244 325.793 9.81985 325.634 9.86237H308.281V15.2176H327.81C328.145 15.2467 328.455 15.4103 328.672 15.6727C328.89 15.9351 328.998 16.2749 328.972 16.6183C328.927 16.9468 328.775 17.25 328.54 17.4784C328.305 17.7069 328.002 17.847 327.679 17.8761H306.831Z" fill="#F7F7F7"/>
</g>
<defs>
<clipPath id="clip0_395_919">
<rect width="329" height="18" fill="white"/>
</clipPath>
</defs>
</svg>
