<svg width="798" height="627" viewBox="0 0 798 627" fill="none" xmlns="http://www.w3.org/2000/svg">
<path d="M347.659 624.087L297.587 617.145L288.487 607.934L281.667 590.097L277.441 564.474L276.012 532.257L277.441 494.964L281.667 454.322L288.487 412.25L297.587 370.701L308.538 331.62L320.824 296.839L333.886 267.982L347.095 246.4L359.845 233.095L371.535 228.7" stroke="#231F20" stroke-linecap="round" stroke-linejoin="round"/>
<path d="M74.8579 220.128L109.859 197.311L149.143 180.778L190.875 171.303L233.098 169.335L273.849 174.959L309.119 187.193L310.754 187.763L311.208 187.921L331.485 200.308L342.162 206.823L343.439 207.604L345.502 212.563L348.878 217.268L353.488 221.615" stroke="#231F20" stroke-linecap="round" stroke-linejoin="round"/>
<path d="M149.143 135.076L190.875 133.235L233.098 138.991L273.849 152.074L311.208 171.862L343.439 197.443L361.322 218.529L369.029 227.613L368.966 228.088" stroke="#231F20" stroke-linecap="round" stroke-linejoin="round"/>
<path d="M263.114 97.1614L296.485 120.511L327.091 149.726L353.488 183.431L374.452 220.059L378.124 229.613" stroke="#231F20" stroke-linecap="round" stroke-linejoin="round"/>
<path d="M760.116 313.567L737.317 345.352L706.182 374.683L667.489 400.844L622.18 423.186L571.38 441.16L516.334 454.322L458.396 462.357L399.003 465.052L339.604 462.357L281.667 454.322L226.62 441.16L175.82 423.186L130.511 400.844L91.8177 374.683L60.6836 345.352L37.8842 313.567L23.9735 280.12L19.2997 245.824L23.9735 211.529L37.8842 178.077L54.0685 155.513L60.6836 146.292L80.3547 122.125L95.1147 108.214L109.674 94.4973L131.756 79.5677L136.182 76.5765L146.121 69.8608L166.942 56.498L180.193 49.9617L206.099 37.1897L219.694 32.3785L250.01 21.6534L262.349 18.6992L297.587 10.2742L308.538 10.116L320.824 19.0157L359.428 13.6664L399.003 11.8674L438.572 13.6664L477.17 19.0157L489.462 10.116L500.413 10.2742L510.452 12.6746L535.651 18.6992L547.99 21.6534L578.307 32.3785L591.901 37.1897L617.807 49.9617L631.058 56.498L651.88 69.8608L661.818 76.5765L666.244 79.5677L688.326 94.4973" stroke="#231F20" stroke-linecap="round" stroke-linejoin="round"/>
<path d="M477.17 19.0159L513.844 27.7837L531.901 20.2662L547.99 21.6536" stroke="#231F20" stroke-linecap="round" stroke-linejoin="round"/>
<path d="M752.23 248.167L739.121 279.677L717.645 309.611L688.326 337.238L651.88 361.875L609.209 382.919L561.357 399.848L509.513 412.25L454.946 419.81L399.003 422.353L343.054 419.81L288.487 412.25L236.643 399.848L188.792 382.919L146.121 361.875L109.674 337.238L80.3547 309.611L58.8794 279.677L45.7758 248.167L41.371 215.865L45.7758 183.564L58.8794 152.058L86.8801 131.932L106.588 104.463L138.16 94.1283L173.599 91.6172L211.248 97.0351L249.34 110.134L286.098 130.302L319.801 156.595L348.878 187.779L371.967 222.402L374.943 229.175" stroke="#231F20" stroke-linecap="round" stroke-linejoin="round"/>
<path d="M365.848 227.345L363.443 224.76L352.797 213.322L342.748 202.523L343.439 197.443L345.502 192.49L348.878 187.778L353.488 183.431L359.222 179.559L365.932 176.246L373.46 173.587L381.616 171.636L390.198 170.443L399.003 170.048L407.802 170.443L416.384 171.636L424.54 173.587L432.062 176.246L438.778 179.559L444.512 183.431L449.122 187.778L452.498 192.49L454.561 197.443L455.252 202.523L454.561 207.604L452.498 212.563L449.122 217.268L444.512 221.615" stroke="#231F20" stroke-linecap="round" stroke-linejoin="round"/>
<path d="M432.147 227.345L434.558 224.76L445.203 213.322L455.252 202.524L465.824 195.191L487.884 179.892L525.713 163.517L566.965 154.163L609.72 152.269L651.969 157.925L691.744 170.865L727.183 190.485" stroke="#231F20" stroke-linecap="round" stroke-linejoin="round"/>
<path d="M220.411 550.832L218.312 518.461L220.411 481.322L226.62 441.16L236.643 399.847L250.01 359.321L266.094 321.47L284.151 288.065L303.337 260.675L322.744 240.575L341.471 228.706L358.647 225.619" stroke="#231F20" stroke-linecap="round" stroke-linejoin="round"/>
<path d="M727.183 190.485L723.142 220.128L711.12 249.043L691.412 276.512L664.503 301.866L631.058 324.471L591.901 343.785L547.99 359.321L500.413 370.701L450.336 377.638L399.003 379.975L347.659 377.638L297.587 370.701L250.01 359.321L206.099 343.785L166.942 324.471L133.492 301.866L106.588 276.512L86.8801 249.043L74.8579 220.128" stroke="#231F20" stroke-linecap="round" stroke-linejoin="round"/>
<path d="M109.674 94.4973L133.492 79.1087L145.16 71.2219L166.942 56.498L191.999 51.3491L220.121 54.6463L250 66.2418L280.226 85.587L309.398 111.785L336.149 143.601L359.222 179.559L377.543 217.97L381.484 230.082" stroke="#231F20" stroke-linecap="round" stroke-linejoin="round"/>
<path d="M522.859 53.8393L548 66.2419L569.476 80.7548L586.752 97.0349L599.407 114.676L607.125 133.235L609.72 152.269L607.125 171.303L599.407 189.868L586.752 207.503L569.476 223.784L548 238.302L522.859 250.699L494.663 260.675L464.114 267.982L431.962 272.439L399.003 273.938L366.038 272.439L333.886 267.982L303.337 260.675L275.141 250.699L250 238.302L228.524 223.784L211.248 207.503L198.593 189.868L190.875 171.303L188.28 152.269L190.875 133.235L198.593 114.676L211.248 97.0349L228.524 80.7548L250 66.2419L275.141 53.8393L303.337 43.8686L333.886 36.5621L366.038 32.1043L399.003 30.6061L431.962 32.1043L464.114 36.5621L494.663 43.8686L522.859 53.8393ZM522.859 53.8393L547.694 39.759L577.879 54.6464L603.659 72.0766L635.832 71.5174L659.835 94.1281L691.412 104.463L711.12 131.932L739.121 152.058L752.229 183.563L774.027 211.529L787.526 243.424L792.374 278.955L787.526 314.485L773.114 349.14L749.492 382.064L717.244 412.456L677.153 439.556L630.22 462.7L577.584 481.322L520.559 494.964L460.538 503.284L399.003 506.08L337.462 503.284L277.441 494.964L220.411 481.322L167.78 462.7L120.842 439.556L80.7557 412.456L48.5031 382.064L24.8808 349.14L10.4743 314.485L5.63165 278.955L10.4743 243.424L23.715 211.856L24.0895 210.669L24.8808 208.77L37.8842 178.077L58.8794 152.058L80.3547 122.125L106.588 104.463L133.492 79.1088L162.162 71.5174L191.999 51.3493L226.926 34.1195L266.094 20.2661L308.538 10.1161L353.203 3.92268L399.003 1.83887L444.797 3.92268L489.462 10.1161L531.901 20.2661L571.069 34.1195L606.001 51.3493L635.832 71.5174L664.503 79.1088L688.326 94.4974L702.885 108.214L717.645 122.125L739.121 152.058L760.116 178.077L773.114 208.77L773.911 210.669L774.285 211.856L778.7 245.825L792.374 278.955L797 313.709L792.374 348.464L792.258 349.271L792.12 349.862L777.519 384.723L753.617 418.032L720.99 448.783L680.429 476.199L632.936 499.617L579.689 518.461L521.988 532.257L461.26 540.676L399.003 543.509L336.74 540.676L276.012 532.257L218.312 518.461L165.058 499.617L117.571 476.199L77.0103 448.783L44.3779 418.032L48.5031 382.064L60.6836 345.352L80.3547 309.61L106.588 276.512L138.16 247.602L173.599 224.237L211.248 207.503L249.34 198.192L286.098 196.731L319.801 203.193L327.091 210.057L336.149 216.182L348.815 221.294L356.458 223.646L358.943 225.556L360.462 225.377L362.43 226.527L365.848 227.345L368.85 228.057L368.966 228.088L369.33 228.173L369.546 228.226L371.535 228.7L372.015 228.769L374.943 229.175L378.123 229.613L381.484 230.083L384.965 230.621L385.097 230.578L388.41 230.731L391.918 230.89L395.458 231.053L399.003 231.211L402.542 231.053L406.082 230.89L409.59 230.731L412.903 230.578L413.019 230.679L418.822 235.78L438.155 233.095L450.905 246.4L464.114 267.982L477.17 296.838L489.462 331.62L500.413 370.7L509.513 412.25L516.334 454.322L520.559 494.964L521.988 532.257L520.559 564.474L516.334 590.097L509.513 607.934L500.413 617.144L450.336 624.087L399.003 626.419L347.659 624.087L343.054 615.493L288.487 607.934L236.643 595.531L226.62 576.93L220.411 550.832L167.78 532.215L120.842 509.066L80.7557 481.966L48.5031 451.579L44.3779 418.032L20.4813 384.723L5.90069 349.657L10.4743 314.485L23.9735 280.12L45.7759 248.167L74.858 220.128L70.8172 190.485L74.858 160.842L109.859 144.425L149.143 135.076L158.412 112.793L173.599 91.617L194.341 72.0766L228.524 80.7548L263.114 97.1615L280.226 85.5871L300.272 75.7061L322.745 67.7507L347.095 61.9266L372.722 58.3762L399.003 57.1839L425.273 58.3762L450.905 61.9266L475.256 67.7507L497.728 75.7061L517.768 85.5871L534.886 97.1615L569.476 80.7548L603.659 72.0766L624.396 91.617L659.835 94.1281L677.417 118.633L711.12 131.932L723.142 160.842L752.229 183.563L756.624 215.865L778.7 245.825L774.027 280.12L787.526 314.485L792.105 349.657L787.526 383.995L779.74 402.707L773.114 418.649L749.492 451.579L717.244 481.966L677.153 509.066L630.22 532.215L577.584 550.832L520.559 564.474L460.538 572.794L399.003 575.59L337.462 572.794L277.441 564.474L220.411 550.832" stroke="#231F20" stroke-linecap="round" stroke-linejoin="round"/>
<path d="M688.141 144.425L691.744 170.865L688.141 197.311L677.417 223.098L659.834 247.602L635.832 270.218L606.001 290.387L571.069 307.611L531.901 321.47L489.462 331.62L444.797 337.813L399.003 339.892L353.203 337.813L308.538 331.62L266.094 321.47L226.926 307.611L191.999 290.387L162.162 270.218L138.16 247.602L120.583 223.098L109.859 197.311L106.256 170.865L109.859 144.425L120.583 118.633L138.16 94.1281L162.162 71.5174L194.341 72.0766L220.121 54.6464L250.306 39.759L284.151 27.7837L303.337 43.8686L322.744 67.7507L341.471 98.3274L358.647 134.164L373.46 173.587L385.224 214.747L388.41 230.731" stroke="#231F20" stroke-linecap="round" stroke-linejoin="round"/>
<path d="M624.396 91.6172L639.588 112.793L648.857 135.077L651.969 157.925L648.857 180.778L639.588 203.062L624.396 224.237L603.659 243.778L577.879 261.208L547.694 276.09L513.844 288.066L477.17 296.839L438.572 302.188L399.003 303.987L359.428 302.188L320.824 296.839L284.151 288.066L250.306 276.09L220.121 261.208L194.341 243.778L173.599 224.237L158.412 203.062L149.143 180.778L146.031 157.925L149.143 135.077" stroke="#231F20" stroke-linecap="round" stroke-linejoin="round"/>
<path d="M320.824 19.0159L333.886 36.5621L347.095 61.9266L359.845 93.933L371.535 131.083L381.616 171.636L389.623 213.697L391.918 230.89" stroke="#231F20" stroke-linecap="round" stroke-linejoin="round"/>
<path d="M206.099 37.1897L226.926 34.1194L250.306 39.7589L275.141 53.8391L300.272 75.706L324.522 104.325L346.752 138.373L365.933 176.246L381.162 216.181L384.95 230.562" stroke="#231F20" stroke-linecap="round" stroke-linejoin="round"/>
<path d="M206.099 590.229L188.792 578.602L175.82 558.956L167.78 532.215L165.058 499.617L167.78 462.7L175.82 423.186L188.792 382.919L206.099 343.785L226.926 307.611L250.306 276.09L275.141 250.699L300.272 232.625L324.522 222.707L346.752 221.41" stroke="#231F20" stroke-linecap="round" stroke-linejoin="round"/>
<path d="M399.003 231.211V212.837V170.047V128.572V90.3561V57.1839V30.606V11.8675V1.8388V1" stroke="#231F20" stroke-linecap="round" stroke-linejoin="round"/>
<path d="M402.542 231.053L403.745 213.053L407.802 170.443L412.903 129.205L418.822 91.2582L425.273 58.3761L431.962 32.1043L438.572 13.6665L444.797 3.92264L450.336 3.33179L475.952 6.88218L491.039 8.97128L500.413 10.2743" stroke="#231F20" stroke-linecap="round" stroke-linejoin="round"/>
<path d="M343.054 615.493L339.604 598.126L337.462 572.793L336.74 540.676L337.462 503.284L339.604 462.357L343.054 419.81L347.659 377.638L353.203 337.813L359.428 302.188L366.038 272.439L372.722 249.95L379.179 235.78L384.965 230.621L385.097 230.578" stroke="#231F20" stroke-linecap="round" stroke-linejoin="round"/>
<path d="M439.353 225.619L456.523 228.705L473.478 222.707L497.728 232.625L522.859 250.699L547.695 276.09L571.069 307.611L591.901 343.785L609.209 382.918L622.18 423.186L630.22 462.699L632.936 499.617L630.22 532.214L622.18 558.956L609.209 578.602L591.901 590.229" stroke="#231F20" stroke-linecap="round" stroke-linejoin="round"/>
<path d="M406.082 230.89L408.377 213.697L416.384 171.636L426.465 131.083L438.155 93.933L450.905 61.9266L464.114 36.5621L477.17 19.0159" stroke="#231F20" stroke-linecap="round" stroke-linejoin="round"/>
<path d="M409.59 230.731L412.776 214.747L424.54 173.587L439.353 134.164L456.523 98.3274L475.256 67.7507L494.663 43.8686L513.844 27.7837L547.695 39.759L571.069 34.1195L591.901 37.1899" stroke="#231F20" stroke-linecap="round" stroke-linejoin="round"/>
<path d="M250.01 21.6536L266.094 20.2662L284.151 27.7837L320.824 19.0159" stroke="#231F20" stroke-linecap="round" stroke-linejoin="round"/>
<path d="M418.822 235.78L425.273 249.95L431.962 272.439L438.572 302.188L444.797 337.813L450.336 377.638L454.946 419.81L458.396 462.357L460.538 503.284L461.261 540.676L460.538 572.794L458.396 598.126L454.946 615.493L450.336 624.087" stroke="#231F20" stroke-linecap="round" stroke-linejoin="round"/>
<path d="M413.051 230.563L416.833 216.182L432.062 176.246L451.243 138.374L473.478 104.326L497.728 75.7062L522.859 53.8394" stroke="#231F20" stroke-linecap="round" stroke-linejoin="round"/>
<path d="M412.903 230.579L413.051 230.563L416.511 230.083L419.871 229.613L423.058 229.175L425.985 228.769L426.465 228.7L438.155 233.095L456.523 228.706L475.256 240.576L494.663 260.675L513.844 288.065L531.901 321.47L547.99 359.321L561.357 399.848L571.38 441.16L577.584 481.322L579.689 518.461L577.584 550.832L571.38 576.93L561.357 595.531L547.99 605.765L506.548 615.678L500.413 617.145" stroke="#231F20" stroke-linecap="round" stroke-linejoin="round"/>
<path d="M426.465 228.7L428.449 228.226L428.67 228.173L429.034 228.088L429.15 228.057L432.147 227.345L435.565 226.527L437.538 225.377L439.062 225.556L441.21 224.728L451.243 221.41L473.478 222.707L488.597 215.248L501.51 206.517L511.902 196.731L548.66 198.192L586.752 207.503L624.396 224.237L659.835 247.602L691.412 276.512L717.645 309.61L737.317 345.352L749.492 382.064L753.617 418.032L749.492 451.579L737.317 481.122L717.645 505.294L702.732 519.348L688.326 532.921" stroke="#231F20" stroke-linecap="round" stroke-linejoin="round"/>
<path d="M416.511 230.082L420.457 217.97L438.778 179.559L461.851 143.601L488.597 111.785L517.768 85.587L548.001 66.2418L577.879 54.6463L606.001 51.3491L631.058 56.498L652.834 71.2219L664.503 79.1087L691.412 104.463L717.645 122.125L737.317 146.292L743.932 155.513L760.116 178.077L774.285 211.856L787.526 243.424" stroke="#231F20" stroke-linecap="round" stroke-linejoin="round"/>
<path d="M451.243 221.41L461.851 216.182L488.597 215.248L517.768 222.739L548.001 238.302L577.879 261.208L606.001 290.386L631.058 324.471L651.88 361.874L667.489 400.844L677.153 439.556L680.429 476.199L677.153 509.066L667.489 536.614L651.88 557.558L631.058 570.921L606.175 583.191L591.901 590.229L557.696 602.331L547.99 605.765" stroke="#231F20" stroke-linecap="round" stroke-linejoin="round"/>
<path d="M419.871 229.613L423.548 220.059L444.512 183.431L470.909 149.726L501.51 120.511L534.886 97.1614" stroke="#231F20" stroke-linecap="round" stroke-linejoin="round"/>
<path d="M399.003 626.419V618.036V600.827V575.59V543.509V506.08V465.052V422.353V379.975V339.892V303.987V273.938V251.142V236.677V231.211" stroke="#231F20" stroke-linecap="round" stroke-linejoin="round"/>
<path d="M423.058 229.175L426.038 222.402L449.122 187.779L478.199 156.595L511.902 130.302L548.66 110.134L586.752 97.0351L624.396 91.6172" stroke="#231F20" stroke-linecap="round" stroke-linejoin="round"/>
<path d="M354.095 222.021L353.641 221.679L348.324 219.352L341.503 216.366L327.091 210.057L296.485 206.517L263.114 211.17L249.34 198.192L239.254 184.133L233.098 169.335L231.03 154.163L233.098 138.991L239.254 124.193L249.34 110.134L263.114 97.1614" stroke="#231F20" stroke-linecap="round" stroke-linejoin="round"/>
<path d="M443.905 222.021L444.206 221.747L449.122 217.268L450.9 216.408L461.857 211.101L478.199 203.193L483.532 195.749L486.792 187.921L487.884 179.891L486.792 171.862L483.532 164.033L478.199 156.595L470.909 149.726L461.851 143.601L451.243 138.373L439.353 134.164L426.465 131.083L412.903 129.205L399.003 128.572L385.097 129.205L371.535 131.083L358.647 134.164L346.752 138.373L336.149 143.601L327.091 149.726L319.801 156.595L314.462 164.033L311.208 171.862L310.116 179.891L311.208 187.921L314.462 195.749L319.801 203.193L336.144 211.101L347.1 216.408L347.443 216.572L348.878 217.268L353.641 221.678L354.095 222.021L359.223 225.493L360.267 226.004L362.43 226.527" stroke="#231F20" stroke-linecap="round" stroke-linejoin="round"/>
<path d="M438.778 225.493L443.905 222.021L444.512 221.615L446.69 220.66L456.497 216.366L470.909 210.057L501.51 206.517L534.886 211.17L548.66 198.192L558.746 184.133L564.897 169.335L566.965 154.163L564.897 138.991L558.746 124.193L548.66 110.134L534.886 97.1614" stroke="#231F20" stroke-linecap="round" stroke-linejoin="round"/>
<path d="M425.985 228.769L426.086 228.558L427.858 224.944L452.498 192.489L483.532 164.033L519.509 140.906L558.746 124.193L599.407 114.676L639.588 112.793L677.417 118.633L688.141 144.424L723.142 160.842L727.183 190.485L756.624 215.865L752.23 248.167L774.027 280.12L760.116 313.567L773.114 349.139L777.519 384.723L773.114 418.649L760.116 449.342L747.63 466.746L737.317 481.121L706.182 510.453L667.489 536.614L622.18 558.956L571.38 576.929L516.334 590.097L458.396 598.126L399.003 600.827L339.604 598.126L281.667 590.097L226.62 576.929L175.82 558.956L130.511 536.614L91.8177 510.453L80.7556 481.966L77.0103 448.783L80.7556 412.456L91.8177 374.683L109.674 337.238L133.492 301.866L162.162 270.218L194.341 243.778L228.524 223.784L263.114 211.17L280.226 222.739L300.272 232.625L322.745 240.575L347.095 246.4L372.722 249.95L399.003 251.142L425.273 249.95L450.905 246.4L475.256 240.575L497.728 232.625L517.768 222.739L534.886 211.17L569.476 223.784L603.659 243.778L635.833 270.218L664.503 301.866L688.326 337.238L706.182 374.683L717.245 412.456L720.99 448.783L717.245 481.966L706.182 510.453L688.326 532.921L662.71 550.241L651.88 557.558L617.506 574.508L609.209 578.602L561.357 595.531L509.513 607.933L454.946 615.493L399.003 618.036L343.054 615.493" stroke="#231F20" stroke-linecap="round" stroke-linejoin="round"/>
<path d="M369.33 228.173L369.029 227.614L370.142 224.944L371.967 222.401L374.452 220.059L377.543 217.97L381.162 216.182L385.224 214.747L389.623 213.697L394.255 213.053L399.003 212.837L403.745 213.053L408.377 213.697L412.776 214.747L416.833 216.182L420.457 217.97L423.548 220.059L426.038 222.401L427.858 224.944L428.966 227.614L429.034 228.088" stroke="#231F20" stroke-linecap="round" stroke-linejoin="round"/>
<path d="M428.67 228.173L428.966 227.613L431.809 224.264L436.678 218.529L454.561 197.443L486.792 171.862L524.151 152.074L564.897 138.991L607.125 133.235L648.857 135.076L688.141 144.424" stroke="#231F20" stroke-linecap="round" stroke-linejoin="round"/>
<path d="M347.659 3.33176L389.739 1.42204L399.003 1L408.261 1.42204L450.336 3.33176" stroke="#231F20" stroke-linecap="round" stroke-linejoin="round"/>
<path d="M297.587 617.145L291.447 615.678L250.01 605.765L236.643 595.531L188.792 578.602L180.488 574.508L146.121 557.558L135.291 550.241L109.674 532.922L91.8177 510.453L60.6835 481.122L48.5031 451.579L24.8808 418.649L18.2552 402.707L10.4742 383.995L5.87428 349.862L5.73712 349.272L5.63162 348.464L1 313.71L5.63162 278.955L19.2996 245.825L41.371 215.865L70.8172 190.485L106.256 170.865L146.031 157.925L188.28 152.269L231.03 154.163L272.287 163.517L310.116 179.892L332.177 195.191L342.748 202.524L343.439 207.604L351.89 216.023L360.652 224.749" stroke="#231F20" stroke-linecap="round" stroke-linejoin="round"/>
<path d="M250.01 605.765L240.304 602.331L206.099 590.229L191.819 583.191L166.942 570.921L146.12 557.558L130.511 536.614L120.842 509.066L117.571 476.199L120.842 439.556L130.511 400.844L146.12 361.874L166.942 324.471L191.999 290.386L220.121 261.208L250 238.302L280.226 222.739L309.398 215.248L336.149 216.182L346.752 221.41L357.017 224.818L359.222 225.493" stroke="#231F20" stroke-linecap="round" stroke-linejoin="round"/>
<path d="M109.674 532.922L95.2678 519.348L80.3548 505.294L60.6836 481.122L50.3706 466.746L37.8842 449.342L24.8809 418.649L20.4814 384.723L24.8809 349.14L37.8842 313.567L58.8795 279.678L86.8802 249.043L120.583 223.098L158.412 203.062L198.593 189.868L239.254 184.133L278.486 186.127L312.194 195.143L314.463 195.75L332.799 205.684L344.004 211.75L345.502 212.563L352.217 218.888L356.458 223.647L357.018 224.818L358.648 225.62" stroke="#231F20" stroke-linecap="round" stroke-linejoin="round"/>
<path d="M10.4742 243.424L23.715 211.856L45.7758 183.563L74.858 160.842L86.8801 131.932L120.583 118.633L158.412 112.793L198.593 114.676L239.254 124.193L278.486 140.906L314.462 164.033L345.502 192.489L370.142 224.944L371.909 228.558L372.015 228.769" stroke="#231F20" stroke-linecap="round" stroke-linejoin="round"/>
<path d="M437.348 224.749L446.11 216.023L454.561 207.604L457.927 205.546L466.515 200.308L486.792 187.921L488.881 187.193L524.151 174.959L564.897 169.335L607.125 171.303L648.857 180.778L688.141 197.311L723.142 220.128L752.23 248.167" stroke="#231F20" stroke-linecap="round" stroke-linejoin="round"/>
<path d="M441.473 222.945L445.783 218.888L452.498 212.563L453.379 212.083L453.997 211.75L465.201 205.684L483.532 195.75L485.806 195.143L519.509 186.127L558.746 184.133L599.407 189.868L639.588 203.062L677.417 223.098L711.12 249.043L739.121 279.678L760.116 313.567" stroke="#231F20" stroke-linecap="round" stroke-linejoin="round"/>
<path d="M435.565 226.527L437.733 226.005L438.772 225.493L441.542 223.646L449.185 221.294L461.851 216.182L470.909 210.057L478.199 203.193L511.902 196.731L519.509 186.127L524.151 174.959L525.713 163.517L524.151 152.074L519.509 140.906L511.902 130.302L501.51 120.511L488.596 111.785L473.478 104.326L456.523 98.3275L438.155 93.933L418.821 91.2583L399.003 90.3562L379.178 91.2583L359.845 93.933L341.471 98.3275L324.522 104.326L309.398 111.785L296.485 120.511L286.098 130.302L278.486 140.906L273.849 152.074L272.287 163.517L273.849 174.959L278.486 186.127L286.098 196.731L296.485 206.517L309.398 215.248L324.522 222.707L341.471 228.706L359.845 233.095L379.178 235.78L399.003 236.677L418.821 235.78" stroke="#231F20" stroke-linecap="round" stroke-linejoin="round"/>
<path d="M297.587 10.2743L306.961 8.97128L322.048 6.88218L347.659 3.33179L353.204 3.92264L359.428 13.6665L366.038 32.1043L372.722 58.3761L379.179 91.2582L385.097 129.205L390.198 170.443L394.255 213.053L395.458 231.053" stroke="#231F20" stroke-linecap="round" stroke-linejoin="round"/>
</svg>
