<svg width="1920" height="1088" viewBox="0 0 1920 1088" fill="none" xmlns="http://www.w3.org/2000/svg">
<g opacity="0.4">
<path d="M0.467102 1C498.513 340.935 1421.49 340.935 1919.53 1" stroke="#F7F7F7" stroke-miterlimit="10"/>
<path d="M0.467163 68.8781C498.513 366.321 1421.49 366.321 1919.53 68.8781" stroke="#F7F7F7" stroke-miterlimit="10"/>
<path d="M0.467163 136.748C498.513 391.699 1421.49 391.699 1919.53 136.748" stroke="#F7F7F7" stroke-miterlimit="10"/>
<path d="M0.467163 204.626C498.513 417.045 1421.49 417.045 1919.53 204.626" stroke="#F7F7F7" stroke-miterlimit="10"/>
<path d="M0.467163 272.504C498.513 442.44 1421.49 442.44 1919.53 272.504" stroke="#F7F7F7" stroke-miterlimit="10"/>
<path d="M0.467163 340.398C498.513 467.85 1421.49 467.85 1919.53 340.398" stroke="#F7F7F7" stroke-miterlimit="10"/>
<path d="M0.467163 408.252C498.513 493.22 1421.49 493.22 1919.53 408.252" stroke="#F7F7F7" stroke-miterlimit="10"/>
<path d="M0.467163 476.122C498.513 518.606 1421.49 518.606 1919.53 476.122" stroke="#F7F7F7" stroke-miterlimit="10"/>
<path d="M0.467163 544L1919.53 544" stroke="#F7F7F7" stroke-miterlimit="10"/>
<path d="M0.467163 611.878C498.513 569.394 1421.49 569.394 1919.53 611.878" stroke="#F7F7F7" stroke-miterlimit="10"/>
<path d="M0.467163 679.748C498.513 594.78 1421.49 594.78 1919.53 679.748" stroke="#F7F7F7" stroke-miterlimit="10"/>
<path d="M0.467163 747.602C498.513 620.15 1421.49 620.15 1919.53 747.602" stroke="#F7F7F7" stroke-miterlimit="10"/>
<path d="M0.467163 815.496C498.513 645.56 1421.49 645.56 1919.53 815.496" stroke="#F7F7F7" stroke-miterlimit="10"/>
<path d="M0.467163 883.374C498.513 670.915 1421.49 670.915 1919.53 883.374" stroke="#F7F7F7" stroke-miterlimit="10"/>
<path d="M0.467163 951.252C498.513 696.301 1421.49 696.301 1919.53 951.252" stroke="#F7F7F7" stroke-miterlimit="10"/>
<path d="M0.467163 1019.12C498.513 721.679 1421.49 721.679 1919.53 1019.12" stroke="#F7F7F7" stroke-miterlimit="10"/>
<path d="M0.467163 1087C498.513 747.065 1421.49 747.065 1919.53 1087" stroke="#F7F7F7" stroke-miterlimit="10"/>
<path d="M1920 2.13013L1920 1085.87" stroke="#F7F7F7" stroke-miterlimit="10"/>
<path d="M1821.68 61.8882L1821.68 1026.11" stroke="#F7F7F7" stroke-miterlimit="10"/>
<path d="M1714.71 113.67L1714.71 974.329" stroke="#F7F7F7" stroke-miterlimit="10"/>
<path d="M1600.24 157.493L1600.24 930.507" stroke="#F7F7F7" stroke-miterlimit="10"/>
<path d="M1479.66 193.348V894.652" stroke="#F7F7F7" stroke-miterlimit="10"/>
<path d="M1354.09 221.227V866.773" stroke="#F7F7F7" stroke-miterlimit="10"/>
<path d="M1224.8 241.146V846.854" stroke="#F7F7F7" stroke-miterlimit="10"/>
<path d="M1093.02 253.098V834.902" stroke="#F7F7F7" stroke-miterlimit="10"/>
<path d="M960 257.082L960 830.918" stroke="#F7F7F7" stroke-miterlimit="10"/>
<path d="M826.979 253.098L826.979 834.902" stroke="#F7F7F7" stroke-miterlimit="10"/>
<path d="M695.205 241.146L695.205 846.854" stroke="#F7F7F7" stroke-miterlimit="10"/>
<path d="M565.909 221.227L565.909 866.773" stroke="#F7F7F7" stroke-miterlimit="10"/>
<path d="M440.339 193.348L440.339 894.652" stroke="#F7F7F7" stroke-miterlimit="10"/>
<path d="M319.754 157.493L319.754 930.507" stroke="#F7F7F7" stroke-miterlimit="10"/>
<path d="M205.289 113.67L205.289 974.329" stroke="#F7F7F7" stroke-miterlimit="10"/>
<path d="M98.3171 61.8882L98.3171 1026.11" stroke="#F7F7F7" stroke-miterlimit="10"/>
<path d="M0 2.13031L0 1085.87" stroke="#F7F7F7" stroke-miterlimit="10"/>
</g>
</svg>
